<mxGraphModel dx="1188" dy="626" grid="1" gridSize="10" guides="1" tooltips="1" connect="1" arrows="1" fold="1" page="1" pageScale="1" pageWidth="1169" pageHeight="827" math="0" shadow="0">
  <root>
    <mxCell id="0" />
    <mxCell id="1" parent="0" />
    <mxCell id="qNkFXoDGS4WkT5INEJU4-4" style="edgeStyle=orthogonalEdgeStyle;rounded=0;orthogonalLoop=1;jettySize=auto;html=1;exitX=0.5;exitY=1;exitDx=0;exitDy=0;entryX=0.5;entryY=0;entryDx=0;entryDy=0;dashed=1;strokeColor=default;endArrow=none;endFill=0;" edge="1" parent="1">
      <mxGeometry relative="1" as="geometry">
        <mxPoint x="368.79" y="643" as="targetPoint" />
        <mxPoint x="369.48" y="56" as="sourcePoint" />
      </mxGeometry>
    </mxCell>
    <mxCell id="qNkFXoDGS4WkT5INEJU4-5" style="edgeStyle=orthogonalEdgeStyle;rounded=0;orthogonalLoop=1;jettySize=auto;html=1;exitX=0.5;exitY=1;exitDx=0;exitDy=0;entryX=0.5;entryY=0;entryDx=0;entryDy=0;dashed=1;strokeColor=default;endArrow=none;endFill=0;" edge="1" parent="1">
      <mxGeometry relative="1" as="geometry">
        <mxPoint x="594.79" y="643" as="targetPoint" />
        <mxPoint x="595.48" y="56" as="sourcePoint" />
      </mxGeometry>
    </mxCell>
    <mxCell id="qNkFXoDGS4WkT5INEJU4-6" style="edgeStyle=orthogonalEdgeStyle;rounded=0;orthogonalLoop=1;jettySize=auto;html=1;exitX=0.5;exitY=1;exitDx=0;exitDy=0;entryX=0.5;entryY=0;entryDx=0;entryDy=0;dashed=1;strokeColor=default;endArrow=none;endFill=0;" edge="1" parent="1">
      <mxGeometry relative="1" as="geometry">
        <mxPoint x="829.79" y="643" as="targetPoint" />
        <mxPoint x="830.48" y="56" as="sourcePoint" />
      </mxGeometry>
    </mxCell>
    <mxCell id="box1" value="Contributor" style="rounded=1;whiteSpace=wrap;html=1;fillColor=#f5f5f5;strokeColor=#666;fontStyle=1;align=center;" parent="1" vertex="1">
      <mxGeometry x="80" y="20" width="140" height="36" as="geometry" />
    </mxCell>
    <mxCell id="box2" value="Web Interface" style="rounded=1;whiteSpace=wrap;html=1;fillColor=#f5f5f5;strokeColor=#666;fontStyle=1;align=center;" parent="1" vertex="1">
      <mxGeometry x="300" y="20" width="140" height="36" as="geometry" />
    </mxCell>
    <mxCell id="box3" value="Content Server" style="rounded=1;whiteSpace=wrap;html=1;fillColor=#f5f5f5;strokeColor=#666;fontStyle=1;align=center;" parent="1" vertex="1">
      <mxGeometry x="520" y="20" width="140" height="36" as="geometry" />
    </mxCell>
    <mxCell id="box4" value="Moderation Service" style="rounded=1;whiteSpace=wrap;html=1;fillColor=#f5f5f5;strokeColor=#666;fontStyle=1;align=center;" parent="1" vertex="1">
      <mxGeometry x="740" y="20" width="170" height="36" as="geometry" />
    </mxCell>
    <mxCell id="qNkFXoDGS4WkT5INEJU4-3" style="edgeStyle=orthogonalEdgeStyle;rounded=0;orthogonalLoop=1;jettySize=auto;html=1;exitX=0.5;exitY=1;exitDx=0;exitDy=0;entryX=0.5;entryY=0;entryDx=0;entryDy=0;dashed=1;strokeColor=default;endArrow=none;endFill=0;" edge="1" parent="1" source="box1">
      <mxGeometry relative="1" as="geometry">
        <mxPoint x="149.31" y="643" as="targetPoint" />
        <mxPoint x="149.31" y="184.0000000000001" as="sourcePoint" />
      </mxGeometry>
    </mxCell>
    <mxCell id="lifeline1" style="shape=line;strokeColor=#999;" parent="1" vertex="1">
      <mxGeometry x="150" y="56" width="1" height="760" as="geometry" />
    </mxCell>
    <mxCell id="lifeline2" style="shape=line;strokeColor=#999;" parent="1" vertex="1">
      <mxGeometry x="370" y="56" width="1" height="760" as="geometry" />
    </mxCell>
    <mxCell id="lifeline3" style="shape=line;strokeColor=#999;" parent="1" vertex="1">
      <mxGeometry x="590" y="56" width="1" height="760" as="geometry" />
    </mxCell>
    <mxCell id="lifeline4" style="shape=line;strokeColor=#999;" parent="1" vertex="1">
      <mxGeometry x="830" y="56" width="1" height="760" as="geometry" />
    </mxCell>
    <mxCell id="act1_v" style="shape=rect;fillColor=#dae8fc;strokeColor=#6c8ebf;" parent="1" vertex="1">
      <mxGeometry x="144" y="135" width="12" height="60" as="geometry" />
    </mxCell>
    <mxCell id="act2_v" style="shape=rect;fillColor=#fff2cc;strokeColor=#d6b656;" parent="1" vertex="1">
      <mxGeometry x="364" y="120" width="12" height="80" as="geometry" />
    </mxCell>
    <mxCell id="act4_v" style="shape=rect;fillColor=#ffe6cc;strokeColor=#d79b00;" parent="1" vertex="1">
      <mxGeometry x="824" y="150" width="12" height="50" as="geometry" />
    </mxCell>
    <mxCell id="msg_v1" value="Request Moderation Rules" style="edgeStyle=orthogonalEdgeStyle;html=1;endArrow=open;endFill=1;" parent="1" source="act1_v" target="act2_v" edge="1">
      <mxGeometry relative="1" as="geometry">
        <mxPoint x="200" y="140" as="sourcePoint" />
        <mxPoint x="370" y="140" as="targetPoint" />
        <Array as="points">
          <mxPoint x="260" y="165" />
          <mxPoint x="260" y="180" />
        </Array>
      </mxGeometry>
    </mxCell>
    <mxCell id="msg_v2" value="Fetch Rules" style="edgeStyle=orthogonalEdgeStyle;html=1;endArrow=open;endFill=1;" parent="1" source="act2_v" target="act4_v" edge="1">
      <mxGeometry relative="1" as="geometry">
        <mxPoint x="380" y="160" as="sourcePoint" />
        <mxPoint x="830" y="160" as="targetPoint" />
        <Array as="points">
          <mxPoint x="600" y="190" />
          <mxPoint x="600" y="175" />
        </Array>
      </mxGeometry>
    </mxCell>
    <mxCell id="msg_v3" value="Return Rules" style="edgeStyle=orthogonalEdgeStyle;html=1;endArrow=open;dashed=1;endFill=1;" parent="1" source="act4_v" target="act2_v" edge="1">
      <mxGeometry relative="1" as="geometry">
        <mxPoint x="830" y="185" as="sourcePoint" />
        <mxPoint x="380" y="185" as="targetPoint" />
        <Array as="points">
          <mxPoint x="600" y="160" />
          <mxPoint x="600" y="140" />
        </Array>
      </mxGeometry>
    </mxCell>
    <mxCell id="msg_v4" value="Display Rules" style="edgeStyle=orthogonalEdgeStyle;html=1;endArrow=open;dashed=1;endFill=1;" parent="1" source="act2_v" target="act1_v" edge="1">
      <mxGeometry relative="1" as="geometry">
        <mxPoint x="380" y="200" as="sourcePoint" />
        <mxPoint x="200" y="200" as="targetPoint" />
        <Array as="points">
          <mxPoint x="260" y="130" />
          <mxPoint x="260" y="140" />
        </Array>
      </mxGeometry>
    </mxCell>
    <mxCell id="act1_p" style="shape=rect;fillColor=#dae8fc;strokeColor=#6c8ebf;" parent="1" vertex="1">
      <mxGeometry x="144" y="295" width="12" height="80" as="geometry" />
    </mxCell>
    <mxCell id="act2_p" style="shape=rect;fillColor=#fff2cc;strokeColor=#d6b656;" parent="1" vertex="1">
      <mxGeometry x="364" y="280" width="12" height="110" as="geometry" />
    </mxCell>
    <mxCell id="act3_p" style="shape=rect;fillColor=#d5e8d4;strokeColor=#82b366;" parent="1" vertex="1">
      <mxGeometry x="584" y="310" width="12" height="90" as="geometry" />
    </mxCell>
    <mxCell id="act4_p" style="shape=rect;fillColor=#ffe6cc;strokeColor=#d79b00;" parent="1" vertex="1">
      <mxGeometry x="824" y="330" width="12" height="70" as="geometry" />
    </mxCell>
    <mxCell id="msg_p1" value="Submit New Content" style="edgeStyle=orthogonalEdgeStyle;html=1;endArrow=open;endFill=1;" parent="1" source="act1_p" target="act2_p" edge="1">
      <mxGeometry relative="1" as="geometry">
        <mxPoint x="200" y="300" as="sourcePoint" />
        <mxPoint x="370" y="300" as="targetPoint" />
      </mxGeometry>
    </mxCell>
    <mxCell id="msg_p2" value="Send to Content Server" style="edgeStyle=orthogonalEdgeStyle;html=1;endArrow=open;endFill=1;" parent="1" source="act2_p" target="act3_p" edge="1">
      <mxGeometry relative="1" as="geometry">
        <mxPoint x="380" y="320" as="sourcePoint" />
        <mxPoint x="590" y="320" as="targetPoint" />
        <Array as="points">
          <mxPoint x="430" y="355" />
          <mxPoint x="430" y="355" />
        </Array>
      </mxGeometry>
    </mxCell>
    <mxCell id="msg_p3" value="Store and Notify Moderation" style="edgeStyle=orthogonalEdgeStyle;html=1;endArrow=open;endFill=1;" parent="1" source="act3_p" target="act4_p" edge="1">
      <mxGeometry relative="1" as="geometry">
        <mxPoint x="600" y="340" as="sourcePoint" />
        <mxPoint x="830" y="340" as="targetPoint" />
        <Array as="points">
          <mxPoint x="770" y="340" />
          <mxPoint x="770" y="340" />
        </Array>
      </mxGeometry>
    </mxCell>
    <mxCell id="msg_p4" value="Ack Receipt" style="edgeStyle=orthogonalEdgeStyle;html=1;endArrow=open;dashed=1;endFill=1;" parent="1" source="act4_p" target="act3_p" edge="1">
      <mxGeometry relative="1" as="geometry">
        <mxPoint x="830" y="360" as="sourcePoint" />
        <mxPoint x="600" y="360" as="targetPoint" />
        <Array as="points">
          <mxPoint x="770" y="370" />
          <mxPoint x="770" y="370" />
        </Array>
      </mxGeometry>
    </mxCell>
    <mxCell id="msg_p5" value="Confirm Publication" style="edgeStyle=orthogonalEdgeStyle;html=1;endArrow=open;dashed=1;endFill=1;" parent="1" source="act3_p" target="act2_p" edge="1">
      <mxGeometry relative="1" as="geometry">
        <mxPoint x="590" y="380" as="sourcePoint" />
        <mxPoint x="380" y="380" as="targetPoint" />
        <Array as="points">
          <mxPoint x="430" y="320" />
          <mxPoint x="430" y="320" />
        </Array>
      </mxGeometry>
    </mxCell>
    <mxCell id="msg_p6" value="Notify Contributor" style="edgeStyle=orthogonalEdgeStyle;html=1;endArrow=open;dashed=1;endFill=1;" parent="1" source="act2_p" target="act1_p" edge="1">
      <mxGeometry relative="1" as="geometry">
        <mxPoint x="370" y="400" as="sourcePoint" />
        <mxPoint x="200" y="400" as="targetPoint" />
        <Array as="points">
          <mxPoint x="310" y="310" />
          <mxPoint x="310" y="310" />
        </Array>
      </mxGeometry>
    </mxCell>
    <mxCell id="act1_d" style="shape=rect;fillColor=#dae8fc;strokeColor=#6c8ebf;" parent="1" vertex="1">
      <mxGeometry x="144" y="515" width="12" height="80" as="geometry" />
    </mxCell>
    <mxCell id="act2_d" style="shape=rect;fillColor=#fff2cc;strokeColor=#d6b656;" parent="1" vertex="1">
      <mxGeometry x="364" y="500" width="12" height="100" as="geometry" />
    </mxCell>
    <mxCell id="act4_d" style="shape=rect;fillColor=#ffe6cc;strokeColor=#d79b00;" parent="1" vertex="1">
      <mxGeometry x="824" y="520" width="12" height="80" as="geometry" />
    </mxCell>
    <mxCell id="msg_d1" value="Initiate Dispute" style="edgeStyle=orthogonalEdgeStyle;html=1;endArrow=open;endFill=1;" parent="1" source="act1_d" target="act2_d" edge="1">
      <mxGeometry relative="1" as="geometry">
        <mxPoint x="200" y="520" as="sourcePoint" />
        <mxPoint x="370" y="520" as="targetPoint" />
      </mxGeometry>
    </mxCell>
    <mxCell id="msg_d2" value="Submit Dispute" style="edgeStyle=orthogonalEdgeStyle;html=1;endArrow=open;endFill=1;" parent="1" source="act2_d" target="act4_d" edge="1">
      <mxGeometry relative="1" as="geometry">
        <mxPoint x="380" y="540" as="sourcePoint" />
        <mxPoint x="830" y="540" as="targetPoint" />
        <Array as="points">
          <mxPoint x="600" y="520" />
          <mxPoint x="600" y="540" />
        </Array>
      </mxGeometry>
    </mxCell>
    <mxCell id="msg_d3" value="Acknowledge Dispute" style="edgeStyle=orthogonalEdgeStyle;html=1;endArrow=open;dashed=1;endFill=1;" parent="1" source="act4_d" target="act2_d" edge="1">
      <mxGeometry relative="1" as="geometry">
        <mxPoint x="830" y="560" as="sourcePoint" />
        <mxPoint x="380" y="560" as="targetPoint" />
        <Array as="points">
          <mxPoint x="600" y="570" />
          <mxPoint x="600" y="590" />
        </Array>
      </mxGeometry>
    </mxCell>
    <mxCell id="msg_d4" value="Notify Contributor" style="edgeStyle=orthogonalEdgeStyle;html=1;endArrow=open;dashed=1;endFill=1;" parent="1" source="act2_d" target="act1_d" edge="1">
      <mxGeometry relative="1" as="geometry">
        <mxPoint x="370" y="580" as="sourcePoint" />
        <mxPoint x="200" y="580" as="targetPoint" />
        <Array as="points">
          <mxPoint x="210" y="520" />
          <mxPoint x="210" y="520" />
        </Array>
      </mxGeometry>
    </mxCell>
  </root>
</mxGraphModel>
